<?xml version="1.0" standalone="no"?>
<!DOCTYPE svg PUBLIC "-//W3C//DTD SVG 20010904//EN"
 "http://www.w3.org/TR/2001/REC-SVG-20010904/DTD/svg10.dtd">
<svg version="1.0" xmlns="http://www.w3.org/2000/svg"
 width="180.000000pt" height="180.000000pt" viewBox="0 0 180.000000 180.000000"
 preserveAspectRatio="xMidYMid meet">
<metadata>
Created by potrace 1.14, written by Peter Selinger 2001-2017
</metadata>
<g transform="translate(0.000000,180.000000) scale(0.100000,-0.100000)"
fill="#000000" stroke="none">
<path d="M0 900 l0 -900 900 0 900 0 0 900 0 900 -900 0 -900 0 0 -900z m604
119 c27 -21 35 -49 13 -49 -7 0 -18 9 -25 20 -16 27 -63 26 -88 -1 -27 -30
-27 -148 0 -178 25 -27 72 -28 88 -1 15 23 38 27 38 6 0 -20 -48 -56 -76 -56
-43 0 -75 19 -89 55 -19 44 -19 126 0 170 23 55 91 72 139 34z m487 2 c18 -14
24 -29 24 -61 0 -56 -29 -80 -96 -80 l-49 0 0 -60 c0 -47 -3 -60 -15 -60 -13
0 -15 22 -15 140 l0 140 64 0 c48 0 70 -5 87 -19z m-346 -131 c17 -44 32 -80
35 -80 3 0 19 35 35 77 19 48 37 79 47 81 13 3 6 -23 -34 -125 -28 -70 -58
-136 -66 -145 -18 -22 -72 -24 -72 -4 0 9 12 16 27 18 51 6 52 42 5 157 -35
86 -38 101 -23 101 12 0 25 -22 46 -80z m516 53 c1 -16 0 -56 -1 -90 l-2 -63
41 0 c30 0 41 -4 41 -15 0 -12 -16 -15 -85 -15 -69 0 -85 3 -85 15 0 10 10 15
30 15 l30 0 0 75 0 75 -30 0 c-20 0 -30 5 -30 15 0 11 12 15 45 15 42 0 45 -2
46 -27z m99 12 c0 -9 -10 -15 -26 -15 -14 0 -34 -5 -45 -10 -27 -15 -25 5 3
24 29 20 68 21 68 1z"/>
<path d="M970 960 l0 -50 43 0 c49 0 67 13 67 50 0 37 -18 50 -67 50 l-43 0 0
-50z"/>
</g>
</svg>
